# xmcd CD database file
#
# Track frame offsets:
#	150
#	25940
#	61115
#	90195
#	113745
#	156832
#
# Disc length: 2421 seconds
#
# Revision: 0
# Processed by: cddbd v1.5.1PL2 Copyright (c) Steve Scherf et al.
# Submitted via: CDex 1.51
#
DISCID=39097306
DTITLE=Johnny Griffin - Return of the Griffin
DYEAR=1978
DGENRE=Jazz
TTITLE0=Autumn Leaves
TTITLE1=When We Were One
TTITLE2=A Monk's Dream
TTITLE3=The Way It Is
TTITLE4=Fifty-Six 
TTITLE5=I Should Care
EXTD=YEAR: 1978
EXTT0=
EXTT1=
EXTT2=
EXTT3=
EXTT4=
EXTT5=
PLAYORDER=
